<svg width="14" height="14" viewBox="0 0 14 14" fill="none" xmlns="http://www.w3.org/2000/svg">
<path d="M10.5295 3.38608C10.5527 3.36323 10.5904 3.36311 10.6135 3.38608C10.6368 3.40933 10.6368 3.44779 10.6135 3.47104L7.08423 7.00034L10.6135 10.5296C10.6366 10.5529 10.6367 10.5904 10.6135 10.6136C10.5904 10.6368 10.5528 10.6367 10.5295 10.6136L7.00024 7.08432L3.47095 10.6136C3.44769 10.6369 3.40924 10.6369 3.38599 10.6136C3.36302 10.5905 3.36314 10.5528 3.38599 10.5296L6.53735 7.37924L6.91528 7.00034L6.53735 6.62143L3.38599 3.47104C3.36277 3.44779 3.36275 3.40932 3.38599 3.38608C3.40923 3.36284 3.4477 3.36286 3.47095 3.38608L6.62134 6.53745L7.00024 6.91537L7.37915 6.53745L10.5295 3.38608Z" fill="#0F1317" stroke="#4E5C6C" stroke-width="1.07143"/>
</svg>
